<svg xmlns="http://www.w3.org/2000/svg" width="980" height="470" viewBox="0 0 980 470">
  <rect width="980" height="470" rx="18" fill="#0b0f14"/>
  <rect x="22" y="22" width="936" height="426" rx="10" fill="#121821" stroke="#2e3440"/>
  <text x="48" y="64" fill="#d8dee9" font-family="ui-monospace, SFMono-Regular, Menlo, monospace" font-size="24" font-weight="700" letter-spacing="0.08em">MUNINN ᚱ</text>
  <text x="48" y="92" fill="#7f8ea3" font-family="ui-monospace, SFMono-Regular, Menlo, monospace" font-size="13">statically typed scripts → bytecode → VM / JIT</text>

  <line x1="130" y1="178" x2="850" y2="178" stroke="#2e3440" stroke-width="2"/>
  <line x1="850" y1="178" x2="850" y2="250" stroke="#2e3440" stroke-width="2"/>
  <line x1="490" y1="178" x2="490" y2="250" stroke="#2e3440" stroke-width="2"/>
  <line x1="490" y1="312" x2="382" y2="350" stroke="#2e3440" stroke-width="2"/>
  <line x1="490" y1="312" x2="598" y2="350" stroke="#2e3440" stroke-width="2"/>

  <g font-family="ui-monospace, SFMono-Regular, Menlo, monospace">
    <rect x="62" y="132" width="136" height="68" rx="7" fill="#0f141b" stroke="#88c0d0"/>
    <text x="92" y="161" fill="#88c0d0" font-size="13" font-weight="700">source .mun</text>
    <text x="90" y="183" fill="#7f8ea3" font-size="12">fn gcd(...) {}</text>

    <rect x="244" y="132" width="116" height="68" rx="7" fill="#0f141b" stroke="#7f8ea3"/>
    <text x="281" y="161" fill="#d8dee9" font-size="13" font-weight="700">lex</text>
    <text x="271" y="183" fill="#7f8ea3" font-size="12">tokens</text>

    <rect x="408" y="132" width="164" height="68" rx="7" fill="#0f141b" stroke="#7f8ea3"/>
    <text x="466" y="161" fill="#d8dee9" font-size="13" font-weight="700">parse</text>
    <text x="460" y="183" fill="#7f8ea3" font-size="12">AST</text>

    <rect x="620" y="132" width="162" height="68" rx="7" fill="#0f141b" stroke="#d9b86c"/>
    <text x="654" y="161" fill="#d9b86c" font-size="13" font-weight="700">type check</text>
    <text x="654" y="183" fill="#7f8ea3" font-size="12">typed program</text>

    <rect x="768" y="250" width="164" height="68" rx="7" fill="#0f141b" stroke="#8fbcbb"/>
    <text x="802" y="279" fill="#8fbcbb" font-size="13" font-weight="700">bytecode</text>
    <text x="806" y="301" fill="#7f8ea3" font-size="12">.mubc module</text>

    <rect x="408" y="250" width="164" height="68" rx="7" fill="#0f141b" stroke="#8fbcbb"/>
    <text x="464" y="279" fill="#8fbcbb" font-size="13" font-weight="700">VM</text>
    <text x="434" y="301" fill="#7f8ea3" font-size="12">stack runtime</text>

    <rect x="266" y="336" width="164" height="46" rx="7" fill="#0f141b" stroke="#88c0d0"/>
    <text x="302" y="365" fill="#88c0d0" font-size="13" font-weight="700">interpreter</text>

    <rect x="550" y="336" width="164" height="46" rx="7" fill="#0f141b" stroke="#7c6f9f"/>
    <text x="584" y="365" fill="#b9a7ff" font-size="13" font-weight="700">JIT hot loops</text>
  </g>

  <line x1="48" y1="414" x2="932" y2="414" stroke="#2e3440" stroke-width="1"/>
  <text x="48" y="438" fill="#4c566a" font-family="ui-monospace, SFMono-Regular, Menlo, monospace" font-size="12">ᛗ source carved into types · ᚨ lowered into bytecode · ᚾ run by the VM</text>
</svg>
